<svg width="113" height="114" viewBox="0 0 113 114" fill="none" xmlns="http://www.w3.org/2000/svg">
<g filter="url(#filter0_d_178_946)">
<rect x="9" y="1" width="95" height="100" rx="14" fill="#FAFAFA"/>
<g filter="url(#filter1_i_178_946)">
<path fill-rule="evenodd" clip-rule="evenodd" d="M47 8.50049C47 8.22435 47.2239 8.00049 47.5 8.00049H66.5C66.7761 8.00049 67 8.22435 67 8.50049V8.50049C67 8.77663 66.7761 9.00049 66.5 9.00049H47.5C47.2239 9.00049 47 8.77663 47 8.50049V8.50049Z" fill="#FAFAFA"/>
</g>
<g filter="url(#filter2_i_178_946)">
<path fill-rule="evenodd" clip-rule="evenodd" d="M47.5439 8.50049C47.5439 8.36242 47.6559 8.25049 47.7939 8.25049H66.206C66.3441 8.25049 66.456 8.36242 66.456 8.50049V8.50049C66.456 8.63856 66.3441 8.75049 66.206 8.75049H47.7939C47.6559 8.75049 47.5439 8.63856 47.5439 8.50049V8.50049Z" fill="white"/>
</g>
<rect width="4" height="8" rx="2" transform="matrix(-1 0 0 1 11 46.5)" fill="#B3B3B3"/>
<g filter="url(#filter3_f_178_946)">
<rect width="2" height="6" rx="1" transform="matrix(-1 0 0 1 10 47.5034)" fill="url(#paint0_linear_178_946)"/>
</g>
<rect width="4" height="8" rx="2" transform="matrix(-1 0 0 1 106 46.5)" fill="#B3B3B3"/>
<g filter="url(#filter4_f_178_946)">
<rect width="2" height="6" rx="1" transform="matrix(-1 0 0 1 105 47.5034)" fill="url(#paint1_linear_178_946)"/>
</g>
<path d="M86.142 79.954V92.092H87.878V81.648H94.108V92.078H95.914V79.954H86.142ZM87.332 84.658V86.324H94.864V84.658H87.332ZM87.318 89.488V91.182H94.864V89.488H87.318Z" fill="#262626"/>
</g>
<defs>
<filter id="filter0_d_178_946" x="0" y="0" width="113" height="114" filterUnits="userSpaceOnUse" color-interpolation-filters="sRGB">
<feFlood flood-opacity="0" result="BackgroundImageFix"/>
<feColorMatrix in="SourceAlpha" type="matrix" values="0 0 0 0 0 0 0 0 0 0 0 0 0 0 0 0 0 0 127 0" result="hardAlpha"/>
<feOffset dy="6"/>
<feGaussianBlur stdDeviation="3.5"/>
<feComposite in2="hardAlpha" operator="out"/>
<feColorMatrix type="matrix" values="0 0 0 0 0 0 0 0 0 0 0 0 0 0 0 0 0 0 0.25 0"/>
<feBlend mode="normal" in2="BackgroundImageFix" result="effect1_dropShadow_178_946"/>
<feBlend mode="normal" in="SourceGraphic" in2="effect1_dropShadow_178_946" result="shape"/>
</filter>
<filter id="filter1_i_178_946" x="47" y="8.00049" width="20" height="1" filterUnits="userSpaceOnUse" color-interpolation-filters="sRGB">
<feFlood flood-opacity="0" result="BackgroundImageFix"/>
<feBlend mode="normal" in="SourceGraphic" in2="BackgroundImageFix" result="shape"/>
<feColorMatrix in="SourceAlpha" type="matrix" values="0 0 0 0 0 0 0 0 0 0 0 0 0 0 0 0 0 0 127 0" result="hardAlpha"/>
<feOffset/>
<feGaussianBlur stdDeviation="1"/>
<feComposite in2="hardAlpha" operator="arithmetic" k2="-1" k3="1"/>
<feColorMatrix type="matrix" values="0 0 0 0 0 0 0 0 0 0 0 0 0 0 0 0 0 0 0.4 0"/>
<feBlend mode="normal" in2="shape" result="effect1_innerShadow_178_946"/>
</filter>
<filter id="filter2_i_178_946" x="47.5439" y="8.25049" width="18.9121" height="0.5" filterUnits="userSpaceOnUse" color-interpolation-filters="sRGB">
<feFlood flood-opacity="0" result="BackgroundImageFix"/>
<feBlend mode="normal" in="SourceGraphic" in2="BackgroundImageFix" result="shape"/>
<feColorMatrix in="SourceAlpha" type="matrix" values="0 0 0 0 0 0 0 0 0 0 0 0 0 0 0 0 0 0 127 0" result="hardAlpha"/>
<feOffset/>
<feGaussianBlur stdDeviation="0.5"/>
<feComposite in2="hardAlpha" operator="arithmetic" k2="-1" k3="1"/>
<feColorMatrix type="matrix" values="0 0 0 0 0.74902 0 0 0 0 0.74902 0 0 0 0 0.74902 0 0 0 1 0"/>
<feBlend mode="normal" in2="shape" result="effect1_innerShadow_178_946"/>
</filter>
<filter id="filter3_f_178_946" x="7" y="46.5034" width="4" height="8" filterUnits="userSpaceOnUse" color-interpolation-filters="sRGB">
<feFlood flood-opacity="0" result="BackgroundImageFix"/>
<feBlend mode="normal" in="SourceGraphic" in2="BackgroundImageFix" result="shape"/>
<feGaussianBlur stdDeviation="0.5" result="effect1_foregroundBlur_178_946"/>
</filter>
<filter id="filter4_f_178_946" x="102" y="46.5034" width="4" height="8" filterUnits="userSpaceOnUse" color-interpolation-filters="sRGB">
<feFlood flood-opacity="0" result="BackgroundImageFix"/>
<feBlend mode="normal" in="SourceGraphic" in2="BackgroundImageFix" result="shape"/>
<feGaussianBlur stdDeviation="0.5" result="effect1_foregroundBlur_178_946"/>
</filter>
<linearGradient id="paint0_linear_178_946" x1="2" y1="3" x2="4.42983e-08" y2="3" gradientUnits="userSpaceOnUse">
<stop stop-color="white" stop-opacity="0.8"/>
<stop offset="0.166667" stop-color="white" stop-opacity="0.5"/>
<stop offset="0.473958" stop-color="white" stop-opacity="0.4"/>
<stop offset="1" stop-color="white" stop-opacity="0"/>
</linearGradient>
<linearGradient id="paint1_linear_178_946" x1="2" y1="3" x2="4.42983e-08" y2="3" gradientUnits="userSpaceOnUse">
<stop stop-color="white" stop-opacity="0.8"/>
<stop offset="0.166667" stop-color="white" stop-opacity="0.5"/>
<stop offset="0.473958" stop-color="white" stop-opacity="0.4"/>
<stop offset="1" stop-color="white" stop-opacity="0"/>
</linearGradient>
</defs>
</svg>
