<svg width="113" height="114" viewBox="0 0 113 114" fill="none" xmlns="http://www.w3.org/2000/svg">
<g filter="url(#filter0_d_178_958)">
<rect x="9" y="1" width="95" height="100" rx="14" fill="#FAFAFA"/>
<g filter="url(#filter1_i_178_958)">
<path fill-rule="evenodd" clip-rule="evenodd" d="M47 8.50049C47 8.22435 47.2239 8.00049 47.5 8.00049H66.5C66.7761 8.00049 67 8.22435 67 8.50049V8.50049C67 8.77663 66.7761 9.00049 66.5 9.00049H47.5C47.2239 9.00049 47 8.77663 47 8.50049V8.50049Z" fill="#FAFAFA"/>
</g>
<g filter="url(#filter2_i_178_958)">
<path fill-rule="evenodd" clip-rule="evenodd" d="M47.5439 8.50049C47.5439 8.36242 47.6559 8.25049 47.7939 8.25049H66.206C66.3441 8.25049 66.456 8.36242 66.456 8.50049V8.50049C66.456 8.63856 66.3441 8.75049 66.206 8.75049H47.7939C47.6559 8.75049 47.5439 8.63856 47.5439 8.50049V8.50049Z" fill="white"/>
</g>
<rect width="4" height="8" rx="2" transform="matrix(-1 0 0 1 11 46.5)" fill="#B3B3B3"/>
<g filter="url(#filter3_f_178_958)">
<rect width="2" height="6" rx="1" transform="matrix(-1 0 0 1 10 47.5034)" fill="url(#paint0_linear_178_958)"/>
</g>
<rect width="4" height="8" rx="2" transform="matrix(-1 0 0 1 106 46.5)" fill="#B3B3B3"/>
<g filter="url(#filter4_f_178_958)">
<rect width="2" height="6" rx="1" transform="matrix(-1 0 0 1 105 47.5034)" fill="url(#paint1_linear_178_958)"/>
</g>
<path d="M87.766 79.772V81.41H94.766V79.772H87.766ZM87.78 83.118V84.714H94.836V83.118H87.78ZM87.71 86.436V88.06H94.738V86.436H87.71ZM86.618 79.772V84.406C86.618 86.548 86.422 89.25 84.294 91.056C84.658 91.28 85.344 91.91 85.596 92.26C87.962 90.272 88.34 86.842 88.34 84.406V79.772H86.618ZM93.982 79.772V90.104C93.982 90.398 93.87 90.496 93.548 90.51C93.212 90.51 92.05 90.524 91.056 90.468C91.336 90.916 91.658 91.728 91.756 92.232C93.212 92.232 94.206 92.204 94.878 91.91C95.522 91.63 95.76 91.126 95.76 90.132V79.772H93.982Z" fill="black"/>
</g>
<defs>
<filter id="filter0_d_178_958" x="0" y="0" width="113" height="114" filterUnits="userSpaceOnUse" color-interpolation-filters="sRGB">
<feFlood flood-opacity="0" result="BackgroundImageFix"/>
<feColorMatrix in="SourceAlpha" type="matrix" values="0 0 0 0 0 0 0 0 0 0 0 0 0 0 0 0 0 0 127 0" result="hardAlpha"/>
<feOffset dy="6"/>
<feGaussianBlur stdDeviation="3.5"/>
<feComposite in2="hardAlpha" operator="out"/>
<feColorMatrix type="matrix" values="0 0 0 0 0 0 0 0 0 0 0 0 0 0 0 0 0 0 0.25 0"/>
<feBlend mode="normal" in2="BackgroundImageFix" result="effect1_dropShadow_178_958"/>
<feBlend mode="normal" in="SourceGraphic" in2="effect1_dropShadow_178_958" result="shape"/>
</filter>
<filter id="filter1_i_178_958" x="47" y="8.00049" width="20" height="1" filterUnits="userSpaceOnUse" color-interpolation-filters="sRGB">
<feFlood flood-opacity="0" result="BackgroundImageFix"/>
<feBlend mode="normal" in="SourceGraphic" in2="BackgroundImageFix" result="shape"/>
<feColorMatrix in="SourceAlpha" type="matrix" values="0 0 0 0 0 0 0 0 0 0 0 0 0 0 0 0 0 0 127 0" result="hardAlpha"/>
<feOffset/>
<feGaussianBlur stdDeviation="1"/>
<feComposite in2="hardAlpha" operator="arithmetic" k2="-1" k3="1"/>
<feColorMatrix type="matrix" values="0 0 0 0 0 0 0 0 0 0 0 0 0 0 0 0 0 0 0.4 0"/>
<feBlend mode="normal" in2="shape" result="effect1_innerShadow_178_958"/>
</filter>
<filter id="filter2_i_178_958" x="47.5439" y="8.25049" width="18.9121" height="0.5" filterUnits="userSpaceOnUse" color-interpolation-filters="sRGB">
<feFlood flood-opacity="0" result="BackgroundImageFix"/>
<feBlend mode="normal" in="SourceGraphic" in2="BackgroundImageFix" result="shape"/>
<feColorMatrix in="SourceAlpha" type="matrix" values="0 0 0 0 0 0 0 0 0 0 0 0 0 0 0 0 0 0 127 0" result="hardAlpha"/>
<feOffset/>
<feGaussianBlur stdDeviation="0.5"/>
<feComposite in2="hardAlpha" operator="arithmetic" k2="-1" k3="1"/>
<feColorMatrix type="matrix" values="0 0 0 0 0.74902 0 0 0 0 0.74902 0 0 0 0 0.74902 0 0 0 1 0"/>
<feBlend mode="normal" in2="shape" result="effect1_innerShadow_178_958"/>
</filter>
<filter id="filter3_f_178_958" x="7" y="46.5034" width="4" height="8" filterUnits="userSpaceOnUse" color-interpolation-filters="sRGB">
<feFlood flood-opacity="0" result="BackgroundImageFix"/>
<feBlend mode="normal" in="SourceGraphic" in2="BackgroundImageFix" result="shape"/>
<feGaussianBlur stdDeviation="0.5" result="effect1_foregroundBlur_178_958"/>
</filter>
<filter id="filter4_f_178_958" x="102" y="46.5034" width="4" height="8" filterUnits="userSpaceOnUse" color-interpolation-filters="sRGB">
<feFlood flood-opacity="0" result="BackgroundImageFix"/>
<feBlend mode="normal" in="SourceGraphic" in2="BackgroundImageFix" result="shape"/>
<feGaussianBlur stdDeviation="0.5" result="effect1_foregroundBlur_178_958"/>
</filter>
<linearGradient id="paint0_linear_178_958" x1="2" y1="3" x2="4.42983e-08" y2="3" gradientUnits="userSpaceOnUse">
<stop stop-color="white" stop-opacity="0.8"/>
<stop offset="0.166667" stop-color="white" stop-opacity="0.5"/>
<stop offset="0.473958" stop-color="white" stop-opacity="0.4"/>
<stop offset="1" stop-color="white" stop-opacity="0"/>
</linearGradient>
<linearGradient id="paint1_linear_178_958" x1="2" y1="3" x2="4.42983e-08" y2="3" gradientUnits="userSpaceOnUse">
<stop stop-color="white" stop-opacity="0.8"/>
<stop offset="0.166667" stop-color="white" stop-opacity="0.5"/>
<stop offset="0.473958" stop-color="white" stop-opacity="0.4"/>
<stop offset="1" stop-color="white" stop-opacity="0"/>
</linearGradient>
</defs>
</svg>
