<svg width="24" height="24" viewBox="0 0 24 24" fill="none" xmlns="http://www.w3.org/2000/svg">
<path d="M5 12H3L12 4L21 12H19" stroke="#454B54" stroke-width="2" stroke-linecap="round" stroke-linejoin="round"/>
<path d="M5 10.7014V18.7114C5 19.3184 5.21071 19.9005 5.58579 20.3297C5.96086 20.7589 6.46957 21 7 21H17C17.5304 21 18.0391 20.7589 18.4142 20.3297C18.7893 19.9005 19 19.3184 19 18.7114V10.7014" stroke="#454B54" stroke-width="2" stroke-linecap="round" stroke-linejoin="round"/>
<path d="M9 21V15.7484C9 15.2841 9.21071 14.8388 9.58579 14.5105C9.96086 14.1822 10.4696 13.9978 11 13.9978H13C13.5304 13.9978 14.0391 14.1822 14.4142 14.5105C14.7893 14.8388 15 15.2841 15 15.7484V21" stroke="#454B54" stroke-width="2" stroke-linecap="round" stroke-linejoin="round"/>
</svg>
